# File created by Blade
# Date/Time:  Mon Sep 22 19:00:17 2014
# Frame Rate: 120.000 fps
#------------------------------------------------------
:FULLY-SPECIFIED
:DEGREES
2437
root -0.827835 32.814458 -3.977300 40.343486 -0.552211 0.470958
Spine -46.391786 -4.827778 -1.197303
Head 8.673002 -13.708217 -10.540725
LeftShoulder -17.820658 42.582929 5.216604
LeftArm 69.257241 32.319392 -54.485699
LeftForeArm 8.888940 0.000000 4.617481
LeftHand -19.093788 -0.000000 -4.406231
LeftHandThumb1 -26.253704 0.000000 33.147579
RightShoulder -26.612974 -23.593612 -48.486432
RightArm -314.494451 55.776858 -342.774530
RightForeArm 35.585375 -0.000000 92.653856
RightHand 7.002530 -0.000000 6.817170
RightHandThumb1 -24.326973 -0.000000 -32.862282
LeftUpLeg -35.260659 6.667878 -1.775832
LeftLeg 0.235922 -0.000000 -0.000000
LeftFoot -2.334243 0.885309 -3.360756
LeftToeBase 2.060740 -0.000000 -0.000000
RightUpLeg -36.003645 -9.784874 5.375715
RightLeg -1.577838 -0.000000 0.000000
RightFoot -5.469365 -4.169408 19.191506
RightToeBase 16.373211 -0.000000 -0.000000
2438
root -0.832872 32.814935 -3.989339 40.353603 -0.626488 0.445438
Spine -46.353287 -4.902967 -1.261488
Head 8.235741 -13.852097 -10.364701
LeftShoulder -17.893676 42.607013 5.101658
LeftArm 69.252935 32.277488 -54.457115
LeftForeArm 8.901992 -0.000000 4.746586
LeftHand -19.032257 -0.000000 -4.395904
LeftHandThumb1 -26.253704 0.000000 33.147579
RightShoulder -26.483715 -24.016851 -48.328301
RightArm -315.484910 54.901048 -344.010075
RightForeArm 32.924687 0.000000 92.681226
RightHand 6.627138 -0.000000 7.564246
RightHandThumb1 -24.326973 -0.000000 -32.862282
LeftUpLeg -35.288295 6.743631 -1.797835
LeftLeg 0.240555 -0.000000 -0.000000
LeftFoot -2.339948 0.883891 -3.358974
LeftToeBase 2.067277 -0.000000 -0.000000
RightUpLeg -36.061538 -9.705115 5.358025
RightLeg -1.523953 -0.000000 0.000000
RightFoot -5.477736 -4.152543 19.198468
RightToeBase 16.415718 -0.000000 -0.000000
2439
root -0.836248 32.815427 -4.002079 40.364370 -0.704033 0.422518
Spine -46.306235 -4.969044 -1.320827
Head 7.790942 -14.012578 -10.231450
LeftShoulder -17.949872 42.641733 5.004810
LeftArm 69.250090 32.251375 -54.424826
LeftForeArm 8.948644 -0.000000 4.919689
LeftHand -19.093898 0.000000 -4.295079
LeftHandThumb1 -26.253704 0.000000 33.147579
RightShoulder -26.390852 -24.354496 -48.169337
RightArm -316.445823 53.993983 -345.271467
RightForeArm 29.712185 0.000000 92.700889
RightHand 6.183794 -0.000000 8.274906
RightHandThumb1 -24.326973 -0.000000 -32.862282
LeftUpLeg -35.306539 6.808590 -1.822117
LeftLeg 0.225095 -0.000000 -0.000000
LeftFoot -2.334433 0.904452 -3.358248
LeftToeBase 2.098508 -0.000000 -0.000000
RightUpLeg -36.113002 -9.647908 5.351636
RightLeg -1.500572 -0.000000 0.000000
RightFoot -5.436352 -4.110240 19.212169
RightToeBase 16.388594 -0.000000 -0.000000
2440
root -0.838089 32.815504 -4.016167 40.396999 -0.793502 0.402353
Spine -46.259802 -5.013785 -1.400164
Head 7.252182 -14.146442 -10.042214
LeftShoulder -17.982556 42.622211 4.944443
LeftArm 69.174287 32.237499 -54.495179
LeftForeArm 9.131928 -0.000000 5.088540
LeftHand -19.026003 0.000000 -4.402066
LeftHandThumb1 -26.253704 0.000000 33.147579
RightShoulder -26.318777 -24.677193 -48.008940
RightArm -317.438203 53.066161 -346.516264
RightForeArm 26.239086 -0.000000 92.767719
RightHand 5.840718 -0.000000 8.636651
RightHandThumb1 -24.326973 -0.000000 -32.862282
LeftUpLeg -35.354163 6.891251 -1.869494
LeftLeg 0.217657 -0.000000 -0.000000
LeftFoot -2.327216 0.907534 -3.356416
LeftToeBase 2.081076 -0.000000 -0.000000
RightUpLeg -36.186758 -9.548923 5.313428
RightLeg -1.471647 -0.000000 0.000000
RightFoot -5.433698 -4.134176 19.228136
RightToeBase 16.430160 -0.000000 -0.000000
2441
root -0.840314 32.815649 -4.029261 40.421242 -0.867020 0.378679
Spine -46.209850 -5.065695 -1.469362
Head 6.757340 -14.194918 -9.856195
LeftShoulder -18.023376 42.648812 4.883114
LeftArm 69.179897 32.231999 -54.481634
LeftForeArm 9.175580 -0.000000 5.240106
LeftHand -19.053668 -0.000000 -4.379387
LeftHandThumb1 -26.253704 0.000000 33.147579
RightShoulder -26.237577 -24.958497 -47.848898
RightArm -318.371494 52.115449 -347.700425
RightForeArm 23.038649 0.000000 92.786073
RightHand 5.567352 -0.000000 8.907656
RightHandThumb1 -24.326973 -0.000000 -32.862282
LeftUpLeg -35.385111 6.966106 -1.902042
LeftLeg 0.195915 -0.000000 -0.000000
LeftFoot -2.320372 0.907764 -3.326219
LeftToeBase 2.069093 -0.000000 -0.000000
RightUpLeg -36.246275 -9.483916 5.305526
RightLeg -1.455813 -0.000000 0.000000
RightFoot -5.404289 -4.122534 19.216106
RightToeBase 16.373741 -0.000000 -0.000000
2442
root -0.840655 32.816238 -4.042391 40.450120 -0.929946 0.363901
Spine -46.152928 -5.113141 -1.531334
Head 6.212965 -14.291339 -9.665147
LeftShoulder -18.076240 42.685006 4.794416
LeftArm 69.182056 32.206478 -54.470893
LeftForeArm 9.158499 0.000000 5.410674
LeftHand -18.948229 0.000000 -4.313982
LeftHandThumb1 -26.253704 0.000000 33.147579
RightShoulder -26.188249 -25.265419 -47.683758
RightArm -319.181597 51.252075 -348.704702
RightForeArm 20.661868 0.000000 92.669086
RightHand 5.407997 -0.000000 9.586921
RightHandThumb1 -24.326973 -0.000000 -32.862282
LeftUpLeg -35.412017 7.007202 -1.925745
LeftLeg 0.156923 -0.000000 -0.000000
LeftFoot -2.308060 0.928866 -3.358148
LeftToeBase 2.109726 -0.000000 -0.000000
RightUpLeg -36.306465 -9.439707 5.297128
RightLeg -1.448029 -0.000000 0.000000
RightFoot -5.380766 -4.115945 19.212098
RightToeBase 16.432627 -0.000000 -0.000000
